<?xml version="1.0" standalone="no"?><!DOCTYPE svg PUBLIC "-//W3C//DTD SVG 1.1//EN"
        "http://www.w3.org/Graphics/SVG/1.1/DTD/svg11.dtd">
<svg t="1525768422093" class="icon" style="" viewBox="0 0 1024 1024" version="1.1" xmlns="http://www.w3.org/2000/svg"
     p-id="2090" xmlns:xlink="http://www.w3.org/1999/xlink" width="128" height="128">
    <defs>
        <style type="text/css"></style>
    </defs>
    <path d="M853.333333 853.333333c-147.2 0-341.333333 85.333333-341.333333 85.333334V469.333333s192-85.333333 384-85.333333l-42.666667 469.333333z"
          fill="#F87562" p-id="2091" data-spm-anchor-id="a313x.7781069.0.i3" class="selected"></path>
    <path d="M170.666667 853.333333c147.2 0 341.333333 85.333333 341.333333 85.333334V469.333333s-192-85.333333-384-85.333333l42.666667 469.333333z"
          fill="#F87562" p-id="2092" data-spm-anchor-id="a313x.7781069.0.i2" class="selected"></path>
    <path d="M512 256m-170.666667 0a170.666667 170.666667 0 1 0 341.333334 0 170.666667 170.666667 0 1 0-341.333334 0Z"
          fill="#00D1B2" p-id="2093" data-spm-anchor-id="a313x.7781069.0.i0" class=""></path>
    <path d="M874.666667 682.666667h21.333333c12.8 0 21.333333-8.533333 21.333333-21.333334v-85.333333c0-12.8-8.533333-21.333333-21.333333-21.333333h-21.333333c-36.266667 0-64 27.733333-64 64s27.733333 64 64 64zM149.333333 554.666667H128c-12.8 0-21.333333 8.533333-21.333333 21.333333v85.333333c0 12.8 8.533333 21.333333 21.333333 21.333334h21.333333c36.266667 0 64-27.733333 64-64s-27.733333-64-64-64z"
          fill="#00D1B2" p-id="2094" data-spm-anchor-id="a313x.7781069.0.i4" class=""></path>
</svg>