<svg xmlns="http://www.w3.org/2000/svg" width="144" height="144" class="icon" version="1.1" viewBox="0 0 1024 1024"><path fill="#108ee9" d="M430.6305024 722.08802702h-164.15651461q-22.9638144-1.70231783-35.29946958-19.13715927t-14.88460106-38.69892709q2.55153493-21.26279111 14.88460106-34.87227196t35.29946958-15.31050413h164.15651461v-53.58482268l-164.15651461-0.85051165q-22.9638144-1.70231783-35.29946958-16.16101579t-14.88460106-36.57329525q2.55153493-21.26279111 14.88460106-34.87227195t35.29946958-15.31050414h122.48014949l-113.97503305-200.73110439q-8.50641099-10.20613973-16.16101578-25.94254697t-6.80409315-34.4476634q4.25255822-23.81691511 17.01152742-38.70022163t47.63124117-19.13715927q20.41357401 1.70102329 36.57329526 14.0340894t26.36715552 26.79176407l129.28424263 236.453888 142.04062279-238.15491129q10.20613973-14.45869795 26.3671555-25.51664387t36.57329526-13.60818631q12.75767467 0.85051165 23.38971749 3.40204658t18.71255071 8.50641098 13.60818632 17.01152743 8.07921335 28.91998498q0 24.66613223-17.01152743 46.77943499l-131.83577758 214.34058524h125.03297896q22.1145973 1.70231783 34.87227196 15.31050413t14.45869795 34.87227197q-1.70231783 22.1145973-14.88460103 37.42380689t-35.2994696 17.01152743l-162.45678585 0.8492171v51.8837994h163.30600297q22.1145973 1.70102329 34.87227194 17.01152743t14.45869796 36.57329523q-1.70231783 22.1145973-14.45869796 37.00049289t-34.87227194 16.58562433l-163.30600297-0.8492171v90.15682339q-3.40204658 72.29737339-79.10146655 72.29737339-37.4238069 0-58.26457854-17.86074454t-22.5379113-54.43662885v-88.45838917z"/></svg>